<?xml version="1.0" encoding="utf-8"?>
<!-- Generator: Adobe Illustrator 22.0.0, SVG Export Plug-In . SVG Version: 6.00 Build 0)  -->
<svg version="1.1" id="Layer_1" xmlns="http://www.w3.org/2000/svg" xmlns:xlink="http://www.w3.org/1999/xlink" x="0px" y="0px"
	 viewBox="0 0 2000 2000" style="enable-background:new 0 0 2000 2000;" xml:space="preserve">
<style type="text/css">
	.st0{fill:url(#SVGID_1_);}
	.st1{fill:#FFFFFF;}
</style>
<g>
	<linearGradient id="SVGID_1_" gradientUnits="userSpaceOnUse" x1="995.9982" y1="1961.7515" x2="995.9982" y2="22">
		<stop  offset="0" style="stop-color:#4657EA"/>
		<stop  offset="1" style="stop-color:#6246EA"/>
	</linearGradient>
	<circle class="st0" cx="996" cy="991.9" r="969.9"/>
	<path class="st1" d="M240.4,859.9c17.6-17.6,36.5-36.7,55.5-55.7c114.7-114.7,229.5-229.3,344.2-344.1c4.1-4.1,8.1-5.7,13.9-5.7
		c232.1,0.1,464.1,0.1,696.2,0c5.2,0,8.7,1.6,12.3,5.2c102.7,102.7,205.4,205.2,308.1,307.8c1.3,1.3,2.4,2.6,4.3,4.7
		c-2.6,0.2-4.3,0.3-6,0.3c-108.4,0-216.9,0-325.3,0.1c-4.2,0-7.2-1.2-10.2-4.2c-23.7-23.9-47.5-47.7-71.5-71.3c-2-2-5.6-3.6-8.4-3.6
		c-168-0.2-336-0.2-504,0c-2.5,0-5.8,1.1-7.5,2.8c-54.7,54.4-109.3,109-164,163.6c-0.4,0.4-0.7,1-0.4,0.5
		c141.5,142,282.9,283.9,424.1,425.6c71.5-71.8,143-143.4,214.9-215.6c-2.5,0-4.8,0-7.2,0c-57.5,0-115,0.1-172.5-0.1
		c-3.1,0-7-1.3-9-3.4c-59.8-63.2-119.5-126.6-179.2-190c-1.1-1.2-2.1-2.4-3.7-4.3c303,0,605.3,0,906.6,0
		c-249.3,250.1-499.2,500.7-749.3,751.6C748.1,1369.1,494.5,1114.7,240.4,859.9z"/>
</g>
</svg>
